# Blender v2.93.1 OBJ File: 'apple.blend'
# www.blender.org
mtllib apple1.mtl
o Sphere
v 0.074632 0.587635 -0.831252
v 0.057366 -0.142638 -1.029220
v 0.114991 -0.668748 -0.767848
v 0.438920 0.178434 -0.909429
v 0.255334 0.779225 -0.418801
v 0.712719 -0.297231 -0.684386
v 0.659075 0.592163 -0.535649
v 0.949772 0.044660 0.411075
v 1.007676 -0.224123 -0.194034
v 0.000000 -0.764662 0.000000
v 0.884984 0.521229 0.004249
v 0.805822 -0.583194 0.252703
v 0.611797 -0.858557 -0.078194
v 0.472419 -0.456996 0.804873
v 0.534202 0.779516 0.174409
v 0.154780 0.121241 1.033092
v 0.455145 0.619186 0.728036
v -0.334691 -0.413853 0.876021
v -0.123134 -0.859068 0.589672
v -0.611930 0.351412 0.780878
v -0.000000 0.626431 0.000000
v -0.818635 -0.445435 0.455562
v -0.316412 0.779020 0.441098
v -0.894426 0.421274 -0.266482
v -0.595332 -0.849237 -0.023312
v -1.045260 -0.116852 0.004497
v -0.752158 0.697267 0.093999
v -0.687361 -0.111732 -0.780813
v -0.502904 0.465092 -0.772606
v -0.584299 -0.607690 -0.587228
v -0.270380 0.781420 -0.469326
v -0.122458 -0.857549 -0.528479
vt 0.737967 0.685551
vt 0.676402 0.560142
vt 0.746045 0.450711
vt 0.599829 0.951049
vt 0.649305 0.835180
vt 0.834952 0.825935
vt 0.614493 0.695409
vt 0.725294 0.278310
vt 0.526349 0.192238
vt 0.789202 0.166995
vt 0.627795 0.409775
vt 0.449869 0.806641
vt 0.529661 0.425847
vt 0.453649 0.313103
vt 0.874771 0.301318
vt 0.864964 0.474241
vt 0.503905 0.661623
vt 0.434772 0.512517
vt 0.340128 0.698027
vt 0.337066 0.359403
vt 0.228867 0.200487
vt 0.271810 0.540076
vt 0.189751 0.368910
vt 0.148629 0.829925
vt 0.145444 0.605618
vt 0.079467 0.354024
vt 0.032055 0.733827
vt 0.014200 0.464659
vt 0.983635 0.467753
vt 0.953596 0.627546
vt 0.987061 0.875000
vt 0.978341 0.203425
vt 0.983569 0.723403
vt 0.840858 0.638793
vt 0.812745 0.041272
vt 0.583432 0.041458
vt 0.178489 0.016351
vt 0.018772 0.203815
vt 0.000000 0.625000
vn 0.0843 0.2589 -0.9622
vn -0.0276 0.9444 0.3277
vn 0.2436 0.8345 -0.4943
vn 0.2599 -0.8667 -0.4258
vn 0.4259 -0.1749 -0.8877
vn 0.4965 -0.6766 -0.5438
vn -0.3169 0.9367 0.1485
vn 0.8433 -0.5352 -0.0491
vn -0.2824 -0.4268 -0.8591
vn 0.9875 0.1558 0.0253
vn 0.9403 -0.2684 0.2092
vn 0.6552 0.6955 0.2950
vn 0.7788 -0.3153 0.5423
vn 0.3925 -0.8123 0.4313
vn 0.0649 -0.3353 0.9399
vn -0.1274 0.9056 -0.4046
vn -0.6442 -0.1399 0.7520
vn -0.8996 0.2878 0.3285
vn -0.9091 0.0463 -0.4140
vn 0.4631 0.8859 0.0258
vn -0.8328 -0.5028 -0.2317
vn -0.8576 -0.3316 -0.3930
vn -0.5498 0.7537 -0.3601
vn -0.4062 -0.8371 -0.3665
vn -0.2228 0.7550 -0.6167
vn 0.0458 0.8982 -0.4373
vn 0.3575 -0.3838 -0.8514
vn 0.3891 0.4949 -0.7770
vn 0.7548 -0.5392 -0.3736
vn 0.7702 0.1501 -0.6198
vn 0.8394 0.1385 -0.5256
vn 0.3717 0.9117 -0.1752
vn 0.5497 0.8265 -0.1214
vn 0.9061 0.2416 -0.3474
vn -0.1237 -0.9721 0.1995
vn 0.7910 0.4559 0.4081
vn 0.4083 -0.8050 0.4305
vn -0.1727 -0.9663 -0.1908
vn 0.6191 0.1035 0.7785
vn 0.6177 0.0291 0.7859
vn 0.0900 0.9531 0.2889
vn 0.0469 -0.5245 0.8501
vn -0.1007 0.5632 0.8202
vn -0.1323 0.6711 0.7295
vn -0.3110 0.0055 0.9504
vn -0.4888 -0.6242 0.6095
vn 0.1444 -0.9813 -0.1270
vn -0.5083 0.7230 0.4678
vn -0.8819 0.0369 0.4700
vn -0.5249 -0.7554 0.3922
vn -0.9381 0.3243 0.1219
vn -0.8504 -0.5242 0.0454
vn 0.1338 -0.9809 0.1414
vn -0.1794 0.9838 -0.0065
vn -0.7752 0.2561 -0.5775
vn -0.5525 0.7516 -0.3603
vn -0.2456 -0.6277 -0.7387
vn -0.3102 0.1126 -0.9440
vn -0.1524 0.2619 -0.9530
usemtl Apple
s off
f 1/1/1 4/2/1 2/3/1
f 21/4/2 5/5/2 31/6/2
f 1/1/3 5/5/3 7/7/3
f 3/8/4 13/9/4 32/10/4
f 4/2/5 6/11/5 2/3/5
f 3/8/6 6/11/6 13/9/6
f 5/5/7 21/4/7 15/12/7
f 9/13/8 12/14/8 13/9/8
f 3/8/9 30/15/9 28/16/9 2/3/9
f 9/13/10 11/17/10 8/18/10
f 9/13/11 8/18/11 12/14/11
f 11/17/12 15/12/12 17/19/12
f 8/18/13 14/20/13 12/14/13
f 13/9/14 14/20/14 19/21/14
f 14/20/15 16/22/15 18/23/15
f 15/12/16 21/4/16 23/24/16
f 20/25/17 22/26/17 18/23/17
f 20/25/18 27/27/18 26/28/18
f 26/29/19 24/30/19 28/16/19
f 21/4/20 31/6/20 23/31/20
f 26/29/21 30/15/21 25/32/21
f 26/29/22 28/16/22 30/15/22
f 24/30/23 27/33/23 29/34/23
f 25/32/24 30/15/24 32/10/24
f 31/6/25 1/1/25 29/34/25
f 31/6/26 5/5/26 1/1/26
f 3/8/27 2/3/27 6/11/27
f 1/1/28 7/7/28 4/2/28
f 6/11/29 9/13/29 13/9/29
f 6/11/30 4/2/30 7/7/30
f 6/11/31 7/7/31 9/13/31
f 5/5/32 15/12/32 7/7/32
f 7/7/33 15/12/33 11/17/33
f 9/13/34 7/7/34 11/17/34
f 10/35/35 32/10/35 13/9/35
f 8/18/36 11/17/36 17/19/36
f 13/9/37 12/14/37 14/20/37
f 13/9/38 19/21/38 10/36/38
f 8/18/39 17/19/39 16/22/39
f 8/18/40 16/22/40 14/20/40
f 15/12/41 23/24/41 17/19/41
f 14/20/42 18/23/42 19/21/42
f 17/19/43 20/25/43 16/22/43
f 20/25/44 17/19/44 23/24/44
f 16/22/45 20/25/45 18/23/45
f 18/23/46 22/26/46 19/21/46
f 10/37/47 19/21/47 25/38/47
f 20/25/48 23/24/48 27/27/48
f 20/25/49 26/28/49 22/26/49
f 19/21/50 22/26/50 25/38/50
f 26/28/51 27/27/51 24/39/51
f 22/26/52 26/28/52 25/38/52
f 10/35/53 25/32/53 32/10/53
f 27/33/54 23/31/54 31/6/54
f 28/16/55 24/30/55 29/34/55
f 29/34/56 27/33/56 31/6/56
f 32/10/57 30/15/57 3/8/57
f 28/16/58 29/34/58 2/3/58
f 2/3/59 29/34/59 1/1/59
o Cylinder
v 0.120798 1.211586 0.168139
v 0.039563 0.539378 -0.032641
v 0.078661 1.212467 0.232965
v 0.032486 0.539275 0.050499
v -0.041132 0.539998 0.042433
v 0.018807 1.211795 0.191851
v 0.010794 0.913360 0.003238
v 0.067935 1.210771 0.124073
v -0.046146 0.539704 -0.020059
v -0.031920 0.907216 0.070439
v 0.021672 0.907041 0.113833
v 0.076687 0.927844 0.057443
vt 0.282601 0.750000
vt 0.289719 1.000000
vt 0.050423 0.750000
vt 0.015422 0.500000
vt 0.164351 0.500000
vt 0.364107 0.500000
vt 0.501138 0.750000
vt 0.604965 0.500000
vt 0.525534 1.000000
vt 0.754944 0.750000
vt 0.868756 0.500000
vt 0.284734 0.033835
vt 0.466743 0.298790
vt 0.244609 0.465638
vt 0.039106 0.195207
vt 0.033327 1.000000
vt 0.582939 0.104890
vt 0.557023 0.364963
vt 0.896242 0.387653
vt 0.885257 0.076270
vt 0.946842 0.750000
vt 0.949488 1.000000
vt 0.784605 1.000000
vn -0.8105 0.3284 -0.4851
vn -0.1444 0.0835 -0.9860
vn -0.9966 0.0189 0.0799
vn -0.6169 -0.2006 0.7611
vn -0.1090 -0.1718 0.9791
vn 0.7304 -0.3622 0.5790
vn 0.9899 -0.1141 0.0841
vn -0.0015 0.9999 -0.0154
vn -0.5517 -0.2117 0.8067
vn -0.7504 0.3674 -0.5495
vn -0.0066 -1.0000 0.0012
vn 0.6093 0.1996 -0.7674
vn -0.8396 0.1603 -0.5190
vn -0.6288 -0.0434 0.7764
vn 0.7298 -0.0951 0.6770
vn 0.7908 -0.3252 0.5185
vn 0.6144 0.1220 -0.7795
usemtl Stem
s off
f 42/40/60 38/41/60 39/42/60
f 39/42/61 34/43/61 41/44/61
f 37/45/62 42/40/62 41/44/62
f 43/46/63 38/41/63 42/40/63
f 36/47/64 43/46/64 37/45/64
f 35/48/65 43/46/65 44/49/65
f 44/49/66 36/47/66 34/50/66
f 35/51/67 33/52/67 40/53/67 38/54/67
f 43/46/68 35/48/68 38/41/68
f 39/42/69 38/41/69 40/55/69
f 37/56/70 41/57/70 34/58/70 36/59/70
f 44/49/71 39/60/71 40/61/71 33/62/71
f 41/44/72 42/40/72 39/42/72
f 37/45/73 43/46/73 42/40/73
f 44/49/74 43/46/74 36/47/74
f 33/62/75 35/48/75 44/49/75
f 39/60/76 44/49/76 34/50/76
o Plane
v -0.187581 0.688910 -0.180516
v 0.561474 0.743344 -0.809751
v 0.622675 0.740058 -0.760759
v 0.163638 0.670053 0.100634
v 0.456308 0.815106 -0.255248
v 0.608029 0.812006 -0.444990
v 0.307914 0.771492 -0.072796
v 0.006091 0.816501 -0.413899
v 0.256810 0.830862 -0.726140
vt 1.000000 0.750000
vt 1.000000 1.000000
vt 0.000000 0.750000
vt 1.000000 0.250000
vt 1.000000 0.500000
vt 0.000000 0.334814
vt 1.000000 0.000000
vt 0.000000 0.000000
vt 0.000000 1.000000
vn 0.2171 0.9539 -0.2073
vn -0.0619 0.9809 0.1842
vn -0.2124 0.9208 0.3271
vn 0.0090 0.9995 0.0296
vn -0.2405 0.9117 0.3331
usemtl Leaf
s off
f 50/63/77 47/64/77 53/65/77
f 51/66/78 49/67/78 52/68/78
f 48/69/79 52/68/79 45/70/79
f 53/65/80 52/68/80 49/67/80 50/63/80
f 48/69/81 51/66/81 52/68/81
f 53/65/77 47/64/77 46/71/77
